# xmcd
# 
# Track frame offsets:
#     183
#     21723
#     105228
#     194025
# 
# Disc length: 2715
# 
# Revision: 5
# Processed by: cddbd v1.5.2PL0 Copyright (c) Steve Scherf et al.
# Submitted via: fre:ac v1.0.17
# 
DISCID=330a9904
DTITLE=The Pura Paku Alaman - Javanese Court Gamelan - Volume I.
DYEAR=1971
DGENRE=Ethnic
TTITLE0=Ketawang: Puspawarna
TTITLE1=Gending: Tejanata/Ladrang Sembawa/Ladrang Playon
TTITLE2=Gending: Mandulpati/Ladrang Agun-Agun
TTITLE3=Bubaran: Hudan Mas
EXTD=One of three Volumes.\nVol. II.=Nonesuch 7559-79721-2\nVol. III.=Nonesuch 7559-79722-2
EXTT0=("Kinds of Flowers") - Sléndro Patet Manyura
EXTT1=("Ruler of the stars") - ketjuk 2 minggah ketuk 4\n(an island]\n("Hastening") - Patetan Djughag, Pélog Patet Lima
EXTT2=("Strong leader") - ketuk 2\n("Quickly") - Sléndro Patet Nem
EXTT3=(Golden Rain]\nPélog Patet Barong
PLAYORDER=
